<svg width="295" height="64" viewBox="0 0 295 64" fill="none" xmlns="http://www.w3.org/2000/svg">
<path d="M46.78 23.225C48.8373 23.225 50.505 21.5573 50.505 19.5C50.505 17.4427 48.8373 15.775 46.78 15.775C44.7227 15.775 43.055 17.4427 43.055 19.5C43.055 21.5573 44.7227 23.225 46.78 23.225Z" fill="white"/>
<path d="M52.13 27.925C54.1873 27.925 55.855 26.2573 55.855 24.2C55.855 22.1427 54.1873 20.475 52.13 20.475C50.0728 20.475 48.405 22.1427 48.405 24.2C48.405 26.2573 50.0728 27.925 52.13 27.925Z" fill="white"/>
<path d="M47.265 33.11C49.3222 33.11 50.99 31.4423 50.99 29.385C50.99 27.3277 49.3222 25.66 47.265 25.66C45.2077 25.66 43.54 27.3277 43.54 29.385C43.54 31.4423 45.2077 33.11 47.265 33.11Z" fill="white"/>
<path d="M41.76 28.245C43.8172 28.245 45.485 26.5773 45.485 24.52C45.485 22.4628 43.8172 20.795 41.76 20.795C39.7027 20.795 38.035 22.4628 38.035 24.52C38.035 26.5773 39.7027 28.245 41.76 28.245Z" fill="white"/>
<path d="M17.155 34.39C22.5232 34.39 26.875 30.0382 26.875 24.67C26.875 19.3018 22.5232 14.95 17.155 14.95C11.7868 14.95 7.435 19.3018 7.435 24.67C7.435 30.0382 11.7868 34.39 17.155 34.39Z" fill="#2F2F2F"/>
<path d="M23.075 22.75H18.945V18.62C18.945 18.47 18.825 18.35 18.67 18.35H15.68C15.53 18.35 15.41 18.47 15.41 18.62V22.75H11.28C11.13 22.75 11.01 22.87 11.01 23.02V26.015C11.01 26.165 11.13 26.285 11.28 26.285H15.41V30.415C15.41 30.565 15.535 30.69 15.68 30.69H18.67C18.82 30.69 18.945 30.565 18.945 30.415V26.285H23.075C23.225 26.285 23.35 26.16 23.35 26.015V23.02C23.35 22.875 23.225 22.75 23.075 22.75Z" fill="white"/>
<path fill-rule="evenodd" clip-rule="evenodd" d="M25.64 24.52C25.64 29.195 21.85 32.985 17.18 32.985C12.505 32.985 8.72001 29.195 8.72001 24.52C8.72001 19.845 12.505 16.055 17.18 16.055C21.85 16.055 25.64 19.845 25.64 24.52ZM17.175 16.055C12.5 16.055 8.71501 19.845 8.71501 24.52C8.71501 29.195 12.5 32.985 17.175 32.985C21.85 32.985 25.635 29.195 25.635 24.52C25.64 19.845 21.85 16.055 17.175 16.055ZM46.825 16.85C46.4987 16.85 46.1755 16.9143 45.874 17.0392C45.5726 17.164 45.2986 17.3471 45.0679 17.5778C44.8371 17.8086 44.6541 18.0825 44.5292 18.384C44.4043 18.6855 44.34 19.0087 44.34 19.335C44.34 19.6613 44.4043 19.9845 44.5292 20.286C44.6541 20.5875 44.8371 20.8614 45.0679 21.0922C45.2986 21.3229 45.5726 21.506 45.874 21.6308C46.1755 21.7557 46.4987 21.82 46.825 21.82C47.4841 21.82 48.1161 21.5582 48.5822 21.0922C49.0482 20.6261 49.31 19.9941 49.31 19.335C49.31 18.6759 49.0482 18.0439 48.5822 17.5778C48.1161 17.1118 47.4841 16.85 46.825 16.85ZM39.155 24.52C39.155 24.8463 39.2193 25.1695 39.3442 25.471C39.4691 25.7725 39.6521 26.0464 39.8829 26.2772C40.1136 26.5079 40.3876 26.691 40.689 26.8158C40.9905 26.9407 41.3137 27.005 41.64 27.005C41.9664 27.005 42.2895 26.9407 42.591 26.8158C42.8925 26.691 43.1664 26.5079 43.3972 26.2772C43.6279 26.0464 43.811 25.7725 43.9359 25.471C44.0607 25.1695 44.125 24.8463 44.125 24.52C44.125 23.8609 43.8632 23.2289 43.3972 22.7628C42.9311 22.2968 42.2991 22.035 41.64 22.035C40.981 22.035 40.3489 22.2968 39.8829 22.7628C39.4168 23.2289 39.155 23.8609 39.155 24.52ZM46.825 32.19C47.1514 32.19 47.4745 32.1257 47.776 32.0008C48.0775 31.876 48.3514 31.6929 48.5822 31.4622C48.8129 31.2314 48.996 30.9575 49.1209 30.656C49.2457 30.3545 49.31 30.0313 49.31 29.705C49.31 29.3787 49.2457 29.0555 49.1209 28.754C48.996 28.4525 48.8129 28.1786 48.5822 27.9478C48.3514 27.7171 48.0775 27.534 47.776 27.4092C47.4745 27.2843 47.1514 27.22 46.825 27.22C46.166 27.22 45.5339 27.4818 45.0679 27.9478C44.6018 28.4139 44.34 29.0459 44.34 29.705C44.34 30.3641 44.6018 30.9961 45.0679 31.4622C45.5339 31.9282 46.166 32.19 46.825 32.19ZM54.495 24.52C54.495 23.8609 54.2332 23.2289 53.7672 22.7628C53.3011 22.2968 52.6691 22.035 52.01 22.035C51.351 22.035 50.7189 22.2968 50.2529 22.7628C49.7868 23.2289 49.525 23.8609 49.525 24.52C49.525 25.895 50.635 27.005 52.01 27.005C52.6691 27.005 53.3011 26.7432 53.7672 26.2772C54.2332 25.8111 54.495 25.1791 54.495 24.52ZM17.175 16.055C12.5 16.055 8.71501 19.845 8.71501 24.52C8.71501 29.195 12.5 32.985 17.175 32.985C21.85 32.985 25.635 29.195 25.635 24.52C25.64 19.845 21.85 16.055 17.175 16.055ZM63.335 42.935L61.51 23.165C60.82 15.66 54.515 9.78 46.83 9.78H17.18C9.49502 9.78 3.18501 15.66 2.49501 23.165L0.665014 42.935C0.240014 48.035 0.765014 52.355 4.79501 53.835C7.78501 54.93 10.865 53.835 15.285 49.275L23.75 40.045H40.24L48.705 49.275C53.125 53.835 56.21 54.93 59.195 53.835C63.23 52.35 63.76 48.035 63.335 42.935Z" fill="#757F3F"/>
<path d="M87.248 44.32C85.328 44.32 83.6213 44.032 82.128 43.456C80.656 42.88 79.408 42.0693 78.384 41.024C77.36 39.9787 76.5813 38.7413 76.048 37.312C75.536 35.8827 75.28 34.3253 75.28 32.64C75.28 30.9333 75.568 29.376 76.144 27.968C76.7413 26.5387 77.5947 25.3013 78.704 24.256C79.8133 23.2107 81.1253 22.4 82.64 21.824C84.176 21.248 85.8827 20.96 87.76 20.96C89.0613 20.96 90.2667 21.12 91.376 21.44C92.5067 21.76 93.52 22.1973 94.416 22.752C95.3333 23.2853 96.1227 23.8933 96.784 24.576L92.688 28.928C92.2613 28.5227 91.8027 28.1707 91.312 27.872C90.8213 27.552 90.2773 27.3067 89.68 27.136C89.0827 26.944 88.4107 26.848 87.664 26.848C86.896 26.848 86.192 26.9973 85.552 27.296C84.912 27.5733 84.3573 27.968 83.888 28.48C83.4187 28.992 83.0453 29.6107 82.768 30.336C82.512 31.04 82.384 31.808 82.384 32.64C82.384 33.472 82.5227 34.2507 82.8 34.976C83.0773 35.68 83.4613 36.288 83.952 36.8C84.4427 37.312 85.0293 37.7173 85.712 38.016C86.3947 38.2933 87.1413 38.432 87.952 38.432C88.5067 38.432 89.008 38.3467 89.456 38.176C89.9253 37.984 90.32 37.7387 90.64 37.44C90.9813 37.12 91.248 36.7467 91.44 36.32C91.632 35.872 91.728 35.392 91.728 34.88V33.952L92.624 35.488H86.928V30.624H97.936C97.9573 30.8587 97.9787 31.2427 98 31.776C98.0427 32.3093 98.064 32.8427 98.064 33.376C98.0853 33.888 98.096 34.24 98.096 34.432C98.096 35.8613 97.8293 37.184 97.296 38.4C96.7627 39.616 96.0053 40.6613 95.024 41.536C94.064 42.4107 92.9227 43.0933 91.6 43.584C90.2773 44.0747 88.8267 44.32 87.248 44.32Z" fill="#757F3F"/>
<path d="M107.919 44.288C106.49 44.288 105.21 43.9147 104.079 43.168C102.97 42.4 102.084 41.3547 101.423 40.032C100.762 38.688 100.431 37.1733 100.431 35.488C100.431 33.76 100.762 32.2347 101.423 30.912C102.084 29.5893 102.991 28.5547 104.143 27.808C105.295 27.04 106.607 26.656 108.079 26.656C108.89 26.656 109.626 26.7733 110.287 27.008C110.97 27.2427 111.567 27.5733 112.079 28C112.591 28.4053 113.028 28.8853 113.391 29.44C113.754 29.9733 114.02 30.5493 114.191 31.168L113.135 31.04V27.008H118.223V44H113.039V39.904L114.191 39.872C114.02 40.4693 113.743 41.0347 113.359 41.568C112.975 42.1013 112.506 42.5707 111.951 42.976C111.396 43.3813 110.778 43.7013 110.095 43.936C109.412 44.1707 108.687 44.288 107.919 44.288ZM109.327 39.968C110.116 39.968 110.799 39.7867 111.375 39.424C111.951 39.0613 112.399 38.5493 112.719 37.888C113.039 37.2053 113.199 36.4053 113.199 35.488C113.199 34.5707 113.039 33.7813 112.719 33.12C112.399 32.4373 111.951 31.9147 111.375 31.552C110.799 31.168 110.116 30.976 109.327 30.976C108.559 30.976 107.887 31.168 107.311 31.552C106.756 31.9147 106.319 32.4373 105.999 33.12C105.679 33.7813 105.519 34.5707 105.519 35.488C105.519 36.4053 105.679 37.2053 105.999 37.888C106.319 38.5493 106.756 39.0613 107.311 39.424C107.887 39.7867 108.559 39.968 109.327 39.968ZM122.709 44V27.008H127.573L127.733 30.08L127.061 30.112C127.317 29.5573 127.637 29.0667 128.021 28.64C128.426 28.2133 128.874 27.8613 129.365 27.584C129.877 27.2853 130.399 27.0613 130.933 26.912C131.487 26.7627 132.042 26.688 132.597 26.688C133.429 26.688 134.186 26.816 134.869 27.072C135.551 27.328 136.149 27.744 136.661 28.32C137.173 28.8747 137.578 29.632 137.877 30.592L137.077 30.528L137.333 30.016C137.61 29.504 137.962 29.0453 138.389 28.64C138.837 28.2133 139.327 27.8613 139.861 27.584C140.394 27.2853 140.949 27.0613 141.525 26.912C142.101 26.7627 142.655 26.688 143.189 26.688C144.533 26.688 145.653 26.9547 146.549 27.488C147.445 28 148.117 28.7787 148.565 29.824C149.034 30.8693 149.269 32.1387 149.269 33.632V44H144.117V34.048C144.117 33.3653 144.021 32.8 143.829 32.352C143.637 31.904 143.349 31.5733 142.965 31.36C142.602 31.1253 142.143 31.008 141.589 31.008C141.141 31.008 140.725 31.0827 140.341 31.232C139.978 31.3813 139.658 31.584 139.381 31.84C139.125 32.096 138.922 32.3947 138.773 32.736C138.623 33.0773 138.549 33.4613 138.549 33.888V44H133.397V34.016C133.397 33.376 133.301 32.832 133.109 32.384C132.917 31.936 132.629 31.5947 132.245 31.36C131.861 31.1253 131.413 31.008 130.901 31.008C130.453 31.008 130.037 31.0827 129.653 31.232C129.29 31.3813 128.97 31.584 128.693 31.84C128.437 32.096 128.234 32.3947 128.085 32.736C127.935 33.0773 127.861 33.4507 127.861 33.856V44H122.709ZM161.618 44.32C159.741 44.32 158.109 43.9467 156.722 43.2C155.335 42.432 154.258 41.3973 153.49 40.096C152.722 38.7733 152.338 37.2693 152.338 35.584C152.338 34.2827 152.551 33.088 152.978 32C153.405 30.912 154.002 29.9733 154.77 29.184C155.538 28.3733 156.445 27.7547 157.49 27.328C158.557 26.88 159.719 26.656 160.978 26.656C162.173 26.656 163.261 26.8693 164.242 27.296C165.245 27.7227 166.109 28.32 166.834 29.088C167.559 29.856 168.114 30.7627 168.498 31.808C168.882 32.8533 169.053 33.9947 169.01 35.232L168.978 36.608H155.442L154.706 33.728H164.818L164.274 34.336V33.696C164.231 33.1627 164.061 32.6933 163.762 32.288C163.485 31.8613 163.111 31.5307 162.642 31.296C162.173 31.0613 161.639 30.944 161.042 30.944C160.21 30.944 159.495 31.1147 158.898 31.456C158.322 31.776 157.885 32.256 157.586 32.896C157.287 33.5147 157.138 34.2827 157.138 35.2C157.138 36.1387 157.33 36.96 157.714 37.664C158.119 38.3467 158.695 38.88 159.442 39.264C160.21 39.648 161.117 39.84 162.162 39.84C162.887 39.84 163.527 39.7333 164.082 39.52C164.658 39.3067 165.277 38.944 165.938 38.432L168.338 41.824C167.677 42.4 166.973 42.8693 166.226 43.232C165.479 43.5947 164.711 43.8613 163.922 44.032C163.154 44.224 162.386 44.32 161.618 44.32ZM186.704 44V21.6H192.144V44H186.704ZM172.816 44V21.6H178.256V44H172.816ZM174.928 35.264L174.96 30.4H189.584V35.264H174.928ZM205.306 44.32C203.428 44.32 201.796 43.9467 200.41 43.2C199.023 42.432 197.946 41.3973 197.178 40.096C196.41 38.7733 196.026 37.2693 196.026 35.584C196.026 34.2827 196.239 33.088 196.666 32C197.092 30.912 197.69 29.9733 198.458 29.184C199.226 28.3733 200.132 27.7547 201.178 27.328C202.244 26.88 203.407 26.656 204.666 26.656C205.86 26.656 206.948 26.8693 207.93 27.296C208.932 27.7227 209.796 28.32 210.522 29.088C211.247 29.856 211.802 30.7627 212.186 31.808C212.57 32.8533 212.74 33.9947 212.698 35.232L212.666 36.608H199.13L198.394 33.728H208.506L207.962 34.336V33.696C207.919 33.1627 207.748 32.6933 207.45 32.288C207.172 31.8613 206.799 31.5307 206.33 31.296C205.86 31.0613 205.327 30.944 204.73 30.944C203.898 30.944 203.183 31.1147 202.586 31.456C202.01 31.776 201.572 32.256 201.274 32.896C200.975 33.5147 200.826 34.2827 200.826 35.2C200.826 36.1387 201.018 36.96 201.402 37.664C201.807 38.3467 202.383 38.88 203.13 39.264C203.898 39.648 204.804 39.84 205.85 39.84C206.575 39.84 207.215 39.7333 207.77 39.52C208.346 39.3067 208.964 38.944 209.626 38.432L212.026 41.824C211.364 42.4 210.66 42.8693 209.914 43.232C209.167 43.5947 208.399 43.8613 207.61 44.032C206.842 44.224 206.074 44.32 205.306 44.32ZM222.232 44.288C220.802 44.288 219.522 43.9147 218.391 43.168C217.282 42.4 216.397 41.3547 215.736 40.032C215.074 38.688 214.743 37.1733 214.743 35.488C214.743 33.76 215.074 32.2347 215.736 30.912C216.397 29.5893 217.304 28.5547 218.456 27.808C219.608 27.04 220.92 26.656 222.392 26.656C223.202 26.656 223.938 26.7733 224.6 27.008C225.282 27.2427 225.88 27.5733 226.392 28C226.904 28.4053 227.341 28.8853 227.704 29.44C228.066 29.9733 228.333 30.5493 228.504 31.168L227.448 31.04V27.008H232.536V44H227.352V39.904L228.504 39.872C228.333 40.4693 228.056 41.0347 227.672 41.568C227.288 42.1013 226.818 42.5707 226.264 42.976C225.709 43.3813 225.09 43.7013 224.408 43.936C223.725 44.1707 223 44.288 222.232 44.288ZM223.64 39.968C224.429 39.968 225.112 39.7867 225.688 39.424C226.264 39.0613 226.712 38.5493 227.032 37.888C227.352 37.2053 227.512 36.4053 227.512 35.488C227.512 34.5707 227.352 33.7813 227.032 33.12C226.712 32.4373 226.264 31.9147 225.688 31.552C225.112 31.168 224.429 30.976 223.64 30.976C222.872 30.976 222.2 31.168 221.624 31.552C221.069 31.9147 220.632 32.4373 220.312 33.12C219.992 33.7813 219.832 34.5707 219.832 35.488C219.832 36.4053 219.992 37.2053 220.312 37.888C220.632 38.5493 221.069 39.0613 221.624 39.424C222.2 39.7867 222.872 39.968 223.64 39.968ZM241.894 44L234.79 27.008H240.454L244.678 39.712L243.43 39.84L247.782 27.008H253.382L245.926 44H241.894ZM263.681 44.32C261.803 44.32 260.171 43.9467 258.785 43.2C257.398 42.432 256.321 41.3973 255.553 40.096C254.785 38.7733 254.401 37.2693 254.401 35.584C254.401 34.2827 254.614 33.088 255.041 32C255.467 30.912 256.065 29.9733 256.833 29.184C257.601 28.3733 258.507 27.7547 259.553 27.328C260.619 26.88 261.782 26.656 263.041 26.656C264.235 26.656 265.323 26.8693 266.305 27.296C267.307 27.7227 268.171 28.32 268.897 29.088C269.622 29.856 270.177 30.7627 270.561 31.808C270.945 32.8533 271.115 33.9947 271.073 35.232L271.041 36.608H257.505L256.769 33.728H266.881L266.337 34.336V33.696C266.294 33.1627 266.123 32.6933 265.825 32.288C265.547 31.8613 265.174 31.5307 264.705 31.296C264.235 31.0613 263.702 30.944 263.105 30.944C262.273 30.944 261.558 31.1147 260.961 31.456C260.385 31.776 259.947 32.256 259.649 32.896C259.35 33.5147 259.201 34.2827 259.201 35.2C259.201 36.1387 259.393 36.96 259.777 37.664C260.182 38.3467 260.758 38.88 261.505 39.264C262.273 39.648 263.179 39.84 264.225 39.84C264.95 39.84 265.59 39.7333 266.145 39.52C266.721 39.3067 267.339 38.944 268.001 38.432L270.401 41.824C269.739 42.4 269.035 42.8693 268.289 43.232C267.542 43.5947 266.774 43.8613 265.985 44.032C265.217 44.224 264.449 44.32 263.681 44.32ZM274.335 44V27.008H279.199L279.359 30.464L278.335 30.848C278.569 30.08 278.985 29.3867 279.583 28.768C280.201 28.128 280.937 27.616 281.791 27.232C282.644 26.848 283.54 26.656 284.479 26.656C285.759 26.656 286.836 26.9227 287.711 27.456C288.585 27.968 289.247 28.7467 289.694 29.792C290.143 30.816 290.367 32.0747 290.367 33.568V44H285.215V33.984C285.215 33.3013 285.119 32.736 284.927 32.288C284.735 31.84 284.436 31.5093 284.031 31.296C283.647 31.0613 283.167 30.9547 282.591 30.976C282.143 30.976 281.727 31.0507 281.343 31.2C280.959 31.328 280.628 31.5307 280.351 31.808C280.073 32.064 279.849 32.3627 279.679 32.704C279.529 33.0453 279.455 33.4187 279.455 33.824V44H276.927C276.329 44 275.817 44 275.391 44C274.964 44 274.612 44 274.335 44Z" fill="#F2F2F2"/>
</svg>
